# xmcd
#
# Track frame offsets: 
#        150
#        15306
#        42544
#        65110
#        83898
#        96195
#        114418
#        127139
#        154160
#        172174
#        187699
#        216941
#        237157
#
# Disc length: 3312 seconds
#
# Revision: 0
# Processed by: cddbd v1.4PL0 Copyright (c) Steve Scherf et al.
# Submitted via: ExactAudioCopy v0.90b4
#
DISCID=b20cee0d
DTITLE=Blues Hammer Band - Lonesome Blues
DYEAR=2002
DGENRE=Blues
TTITLE0=Standin' At The Window
TTITLE1=Goodmornin' Mr. Blues
TTITLE2=Lonesome Blues
TTITLE3=Whoa Yeah
TTITLE4=I Can't Be Satisfied
TTITLE5=Shugar Mana
TTITLE6=I Can't Hold out
TTITLE7=Lookin' For Somebody
TTITLE8=If You Don't Want Me
TTITLE9=Baby Please Don't Go
TTITLE10=Night Pray Blues
TTITLE11=Everyday I Have The Blues
TTITLE12=What Have You Done
EXTD=
EXTT0=
EXTT1=
EXTT2=
EXTT3=
EXTT4=
EXTT5=
EXTT6=
EXTT7=
EXTT8=
EXTT9=
EXTT10=
EXTT11=
EXTT12=
PLAYORDER=
